<?xml version="1.0" encoding="UTF-8" standalone="no"?>
<!DOCTYPE svg PUBLIC "-//W3C//DTD SVG 1.1//EN" "http://www.w3.org/Graphics/SVG/1.1/DTD/svg11.dtd">
<svg width="100%" height="100%" viewBox="0 0 576 512" version="1.1" xmlns="http://www.w3.org/2000/svg" xmlns:xlink="http://www.w3.org/1999/xlink" xml:space="preserve" xmlns:serif="http://www.serif.com/" style="fill-rule:evenodd;clip-rule:evenodd;stroke-linejoin:round;stroke-miterlimit:2;">
    <path d="M0,112.5L0,422.3C0,440.3 10.1,457.3 27,463.6C114,496.1 201,473.9 288,451.7C367.8,431.4 447.6,411 527.3,432.8C550.3,439.1 576,423.3 576,399.4L576,89.7C576,71.7 565.9,54.7 549,48.4C462,15.9 375,38.1 288,60.3C208.2,80.6 128.4,100.9 48.7,79.1C25.6,72.8 0,88.6 0,112.5ZM288,352C243.8,352 208,309 208,256C208,203 243.8,160 288,160C332.2,160 368,203 368,256C368,309 332.2,352 288,352ZM64,352C99.3,352 128,380.7 128,416L64,416L64,352ZM128,144C128,179.3 99.3,208 64,208L64,144L128,144ZM512,304L512,368L448,368C448,332.7 476.7,304 512,304ZM448,96L512,96L512,160C476.7,160 448,131.3 448,96Z" style="fill:rgb(255,176,0);fill-rule:nonzero;"/>
</svg>
